<?xml version="1.0" encoding="utf-8"?>
<!-- Generator: Adobe Illustrator 16.0.0, SVG Export Plug-In . SVG Version: 6.00 Build 0)  -->
<!DOCTYPE svg PUBLIC "-//W3C//DTD SVG 1.1//EN" "http://www.w3.org/Graphics/SVG/1.1/DTD/svg11.dtd">
<svg version="1.1" id="Capa_1" xmlns="http://www.w3.org/2000/svg" xmlns:xlink="http://www.w3.org/1999/xlink" x="0px" y="0px"
	 width="640px" height="480px" viewBox="0 0 640 480" enable-background="new 0 0 640 480" xml:space="preserve">
<g>
	<path fill="#2F2B2D" d="M20.748,21.033H619.15c0,0,16.229,2.59,18.886,17.795l1.474,400.217c0,0-4.429,18.77-16.229,19.09H20.748
		c0,0-12.393,2.346-18.59-16.824V39.152c0,0,0.053-0.136,0.161-0.383C3.375,36.324,9.628,22.942,20.748,21.033z"/>
	<path fill="#353334" d="M639.513,374.09L639.513,374.09L639.513,374.09c0-189.049-142.678-342.304-318.679-342.304
		C144.835,31.786,2.16,185.041,2.159,374.09l0,0l-0.001,67.965c0,0,3.961,12.979,13.699,16.912l607.423-0.09
		c0,0,11.109-1.273,15.576-16.822l0.656-67.963l0,0C639.513,374.092,639.513,374.092,639.513,374.09z"/>
	<path fill="none" stroke="#FFFFFF" stroke-width="2" stroke-miterlimit="10" d="M20.748,21.033c-13.551,0-18.59,18.12-18.59,18.12
		v215.2c46.944,26.257,101.705,41.347,160.201,41.347c165.745,0,301.602-120.995,314.179-274.667
		C454.048,21.033,33.936,21.033,20.748,21.033z"/>
	<ellipse fill="#656567" cx="524.117" cy="362.385" rx="35.408" ry="43.678"/>
	<ellipse fill="#B1B1B1" cx="571.917" cy="362.385" rx="35.409" ry="43.678"/>
	<path fill="none" stroke="#FFFFFF" stroke-width="3" stroke-linecap="round" stroke-miterlimit="10" d="M572.211,76.545
		c0,0,6.197,14.295,0,21.156"/>
	<path fill="none" stroke="#FFFFFF" stroke-width="3" stroke-linecap="round" stroke-miterlimit="10" d="M582.391,71.399
		c0,0,5.313,16.582,0,30.877"/>
	<path fill="none" stroke="#FFFFFF" stroke-width="3" stroke-linecap="round" stroke-miterlimit="10" d="M593.457,66.251
		c0,0,7.967,22.873,0,42.886"/>
	<path fill="none" stroke="#FFFFFF" stroke-width="3" stroke-linecap="round" stroke-miterlimit="10" d="M603.194,59.392
		c0,0,10.622,32.593,0,57.751"/>
	<linearGradient id="SVGID_1_" gradientUnits="userSpaceOnUse" x1="65.668" y1="183.5386" x2="162.0894" y2="239.2075">
		<stop  offset="0" style="stop-color:#FFFFFF"/>
		<stop  offset="0.152" style="stop-color:#E1E1E1"/>
		<stop  offset="0.4841" style="stop-color:#949494"/>
		<stop  offset="0.9688" style="stop-color:#1A1A1A"/>
		<stop  offset="1" style="stop-color:#121212"/>
	</linearGradient>
	<path fill="url(#SVGID_1_)" stroke="#211915" stroke-width="0.75" stroke-linecap="round" stroke-miterlimit="10" d="
		M78.707,167.373h71.26c0,0,6.417,3.397,7.524,9.463c1.106,6.066,1.106,66.73,1.106,66.73s-3.098,11.404-9.294,11.404
		s-70.596,0-70.596,0s-5.311,0.951-8.631-9.596v-55.434v-12.377C70.076,177.564,72.51,167.373,78.707,167.373z"/>
	<polyline fill="none" stroke="#211915" stroke-width="0.75" stroke-miterlimit="10" points="70.076,189.941 94.198,189.941 
		94.198,167.373 	"/>
	<path fill="none" stroke="#211915" stroke-width="0.75" stroke-miterlimit="10" d="M94.198,189.941c0,0,6.491-0.648,9.737,8.087
		v25.249c0,0-2.509,10.667-9.737,8.885H69.522"/>
	
		<line fill="none" stroke="#211915" stroke-width="0.75" stroke-miterlimit="10" x1="103.935" y1="210.201" x2="69.522" y2="210.201"/>
	
		<line fill="none" stroke="#211915" stroke-width="0.75" stroke-miterlimit="10" x1="94.825" y1="232.288" x2="94.825" y2="254.121"/>
	
		<line fill="none" stroke="#211915" stroke-width="0.75" stroke-miterlimit="10" x1="132.926" y1="167.373" x2="132.926" y2="189.93"/>
	
		<line fill="none" stroke="#211915" stroke-width="0.75" stroke-miterlimit="10" x1="158.131" y1="189.93" x2="131.377" y2="189.93"/>
	
		<line fill="none" stroke="#211915" stroke-width="0.75" stroke-miterlimit="10" x1="158.438" y1="210.201" x2="124.516" y2="210.201"/>
	
		<line fill="none" stroke="#211915" stroke-width="0.75" stroke-miterlimit="10" x1="124.516" y1="197.461" x2="124.516" y2="223.911"/>
	
		<line fill="none" stroke="#211915" stroke-width="0.75" stroke-miterlimit="10" x1="124.516" y1="197.461" x2="103.935" y2="197.461"/>
	
		<line fill="none" stroke="#211915" stroke-width="0.75" stroke-miterlimit="10" x1="124.516" y1="223.911" x2="103.935" y2="223.911"/>
	
		<line fill="none" stroke="#211915" stroke-width="0.75" stroke-miterlimit="10" x1="132.926" y1="254.971" x2="132.926" y2="230.948"/>
	
		<line fill="none" stroke="#211915" stroke-width="0.75" stroke-miterlimit="10" x1="158.597" y1="230.948" x2="132.926" y2="230.948"/>
	<path fill="none" stroke="#211915" stroke-width="0.75" stroke-miterlimit="10" d="M124.516,198.675c0,0,1.549-8.745,9.074-8.745"
		/>
	<path fill="none" stroke="#211915" stroke-width="0.75" stroke-miterlimit="10" d="M124.443,222.294c0,0-0.213,8.654,10.179,8.654"
		/>
	<path fill="none" stroke="#2F2B2D" stroke-width="2" stroke-miterlimit="10" d="M20.748,21.033H619.15
		c0,0,16.229,2.59,18.886,17.795l1.474,400.217c0,0-4.429,18.77-16.229,19.09H20.748c0,0-12.393,2.346-18.59-16.824V39.152
		c0,0,0.053-0.136,0.161-0.383C3.375,36.324,9.628,22.942,20.748,21.033z"/>
	<path fill="#858688" d="M548.018,330.164c0,0-25.081,30.984,0,64.443C548.018,394.607,573.69,360.383,548.018,330.164z"/>
	<path fill="none" stroke="#FFFFFF" stroke-width="3" stroke-linecap="round" stroke-miterlimit="10" d="M649.225,347.182"/>
	<g>
		<text transform="matrix(1.0904 0 0 1 488.708 437.125)" fill="#C3C3C5" font-family="'MyriadPro-Regular'" font-size="23.2948">mastercard.</text>
	</g>
	<text transform="matrix(0.8902 0 0 1 36.0718 108.1978)" fill="#FFFFFF" font-family="'ArialMT'" font-size="51.3188">black</text>
	<text transform="matrix(0.912 0 0 1 36.0708 360.4434)" fill="#FFFFFF" font-family="'ArialMT'" font-size="13.5887">valid thru</text>
</g>
</svg>
